<svg width="500" height="500" viewBox="0 0 500 500" fill="none" xmlns="http://www.w3.org/2000/svg">
<rect width="500" height="500" />
<g clip-path="url(#clip0_0_1)">
<path d="M379.568 77.849C355.417 75.6302 330.313 89.8385 323.604 109.505L306.505 159.656C304.078 160.245 301.984 162 301.078 164.531C299.641 168.531 301.719 172.932 305.708 174.37C309.708 175.802 314.109 173.734 315.547 169.734C316.755 166.37 315.469 162.719 312.651 160.792L329.943 110.083C335.688 93.2344 357.12 81.1094 377.807 83.0104C398.5 84.9062 410.609 100.109 404.865 116.964L389.073 163.276C386.344 163.672 383.917 165.521 382.927 168.292C381.484 172.286 383.563 176.693 387.557 178.13C391.552 179.568 395.958 177.495 397.396 173.495C398.526 170.349 397.479 166.958 395.031 164.953L411.203 117.547C417.911 97.875 403.719 80.0625 379.568 77.849Z" fill="#0D3BE0"/>
<path d="M357.167 73.9687C333.01 71.7552 307.911 85.9583 301.198 105.63L284.099 155.781C281.677 156.37 279.578 158.13 278.672 160.651C277.234 164.651 279.312 169.057 283.307 170.495C287.302 171.927 291.708 169.859 293.141 165.859C294.354 162.495 293.062 158.844 290.245 156.911L307.536 106.214C313.281 89.3594 334.714 77.2344 355.401 79.1354C376.094 81.0312 388.203 96.2292 382.458 113.083L366.661 159.406C363.943 159.797 361.516 161.641 360.521 164.417C359.083 168.411 361.151 172.818 365.151 174.255C369.151 175.693 373.552 173.615 374.99 169.615C376.12 166.474 375.073 163.083 372.63 161.078L388.797 113.672C395.505 93.9948 381.318 76.1875 357.167 73.9687Z" fill="#2051FF"/>
<mask id="mask0_0_1" style="mask-type:luminance" maskUnits="userSpaceOnUse" x="1" y="142" width="499" height="287">
<path d="M1.33331 142.667H500V428.563H1.33331V142.667Z" fill="white"/>
</mask>
<g mask="url(#mask0_0_1)">
<path d="M447.24 151.839L428.312 143.974L381.005 146.031L376.146 160.286C378.453 163.172 379.161 167.099 377.885 170.661C376.354 174.922 372.281 177.792 367.755 177.792C367.75 177.792 367.75 177.792 367.75 177.792C365.896 177.786 364.078 177.307 362.401 176.365C360.958 175.552 359.719 174.396 358.807 173.016C356.88 170.094 356.469 166.578 357.625 163.375C358.75 160.245 361.224 157.859 364.297 156.818L367.781 146.609L295.948 149.74L293.823 155.964C296.948 159.359 297.677 164.547 295.125 168.823C293.604 171.375 291.042 173.193 288.13 173.797C285.578 174.323 283 173.938 280.698 172.688C279.193 171.865 277.906 170.688 276.964 169.255C275.036 166.339 274.625 162.823 275.781 159.609C276.797 156.766 278.948 154.521 281.677 153.354L282.714 150.318L241.245 152.125L226.583 181.911H324.5C329.708 181.911 334.146 185.964 334.328 191.172C334.526 196.646 330.151 201.135 324.729 201.135H77.5468C73.8854 201.135 70.5416 203.219 68.927 206.505C65.7812 212.896 70.427 220.365 77.5468 220.365H290.776C295.99 220.365 300.432 224.422 300.615 229.635C300.807 235.104 296.432 239.599 291.01 239.599H119.932C116.271 239.599 112.927 241.677 111.312 244.964C108.167 251.354 112.812 258.828 119.932 258.828H249.078C254.286 258.828 258.724 262.875 258.911 268.089C259.104 273.557 254.729 278.057 249.307 278.057H11.7656C8.10933 278.057 4.76558 280.135 3.14579 283.422C-4.43459e-05 289.807 4.651 297.286 11.7656 297.286H268.375C273.583 297.286 278.026 301.333 278.208 306.547C278.401 312.021 274.031 316.51 268.604 316.51H39.4427C35.7812 316.51 32.4375 318.594 30.8177 321.88C27.6718 328.266 32.3229 335.74 39.4427 335.74H198.021C203.234 335.74 207.672 339.797 207.859 345.005C208.052 350.474 203.677 354.969 198.25 354.969H141.385L122.74 392.839L343.802 428.38L500.005 416.401L447.24 151.839Z" fill="#2E40E0"/>
</g>
<mask id="mask1_0_1" style="mask-type:luminance" maskUnits="userSpaceOnUse" x="342" y="142" width="158" height="287">
<path d="M342.667 142.667H500V428.563H342.667V142.667Z" fill="white"/>
</mask>
<g mask="url(#mask1_0_1)">
<path d="M428.312 143.974L343.802 428.38L500.005 416.401L447.24 151.839L428.312 143.974Z" fill="#152191"/>
</g>
</g>
<defs>
<clipPath id="clip0_0_1">
<rect width="500" height="500" fill="white"/>
</clipPath>
</defs>
</svg>
