<svg width="502" height="502" viewBox="0 0 502 502" fill="none" xmlns="http://www.w3.org/2000/svg">
<rect width="502" height="502" />
<path d="M408.814 102.392C450.548 142.932 476.251 194.914 479.568 250.129C483.161 305.095 464.367 363.543 422.633 404.332C381.176 445.37 316.226 468.998 251.553 468.998C186.603 469.247 121.653 445.619 79.6431 404.829C37.6331 363.791 18.8391 305.343 22.4321 250.129C26.025 194.914 52.0049 142.932 94.015 102.392C136.025 61.851 193.789 33 251.553 33C309.317 33 367.08 62.0997 408.814 102.392Z" fill="#6E26A7"/>
<mask id="mask0_0_1" style="mask-type:luminance" maskUnits="userSpaceOnUse" x="123" y="110" width="256" height="282">
<path d="M123.928 111.096L378.146 110.422L378.887 390.421L124.67 391.095L123.928 111.096Z" fill="white"/>
</mask>
<g mask="url(#mask0_0_1)">
<mask id="mask1_0_1" style="mask-type:luminance" maskUnits="userSpaceOnUse" x="124" y="110" width="255" height="280">
<path d="M124.182 207.111L124.413 294.142C124.462 312.814 134.43 330.048 150.559 339.338L225.736 382.65C241.865 391.946 261.709 391.893 277.793 382.512L352.735 338.803C368.814 329.427 378.69 312.14 378.641 293.468L378.41 206.437C378.361 187.765 368.393 170.531 352.264 161.241L277.092 117.929C260.958 108.634 241.114 108.686 225.035 118.067L150.088 161.776C134.009 171.163 124.133 188.439 124.182 207.111Z" fill="white"/>
</mask>
<g mask="url(#mask1_0_1)">
<path d="M124.673 392.256L123.922 108.997L378.14 108.323L378.891 391.582L124.673 392.256Z" fill="url(#paint0_linear_0_1)"/>
</g>
</g>
<mask id="mask2_0_1" style="mask-type:luminance" maskUnits="userSpaceOnUse" x="286" y="222" width="59" height="59">
<path d="M286.443 222.229L344.339 222.075L344.492 279.971L286.596 280.124L286.443 222.229Z" fill="white"/>
</mask>
<g mask="url(#mask2_0_1)">
<mask id="mask3_0_1" style="mask-type:luminance" maskUnits="userSpaceOnUse" x="286" y="222" width="59" height="59">
<path d="M315.391 222.152C299.406 222.194 286.477 235.187 286.52 251.176C286.562 267.166 299.56 280.09 315.544 280.047C331.534 280.005 344.458 267.013 344.415 251.023C344.373 235.033 331.38 222.109 315.391 222.152Z" fill="white"/>
</mask>
<g mask="url(#mask3_0_1)">
<path d="M286.443 222.229L344.339 222.075L344.492 279.971L286.596 280.124L286.443 222.229Z" fill="#6E26A7"/>
</g>
</g>
<mask id="mask4_0_1" style="mask-type:luminance" maskUnits="userSpaceOnUse" x="211" y="147" width="81" height="81">
<path d="M211.038 178.643L259.529 147.011L291.161 195.501L242.671 227.134L211.038 178.643Z" fill="white"/>
</mask>
<g mask="url(#mask4_0_1)">
<mask id="mask5_0_1" style="mask-type:luminance" maskUnits="userSpaceOnUse" x="222" y="158" width="59" height="59">
<path d="M235.283 162.827C221.891 171.563 218.118 189.496 226.855 202.888C235.588 216.276 253.524 220.053 266.916 211.317C280.308 202.581 284.078 184.643 275.345 171.256C266.609 157.864 248.675 154.091 235.283 162.827Z" fill="white"/>
</mask>
<g mask="url(#mask5_0_1)">
<path d="M211.038 178.643L259.529 147.011L291.161 195.501L242.671 227.134L211.038 178.643Z" fill="#6E26A7"/>
</g>
</g>
<mask id="mask6_0_1" style="mask-type:luminance" maskUnits="userSpaceOnUse" x="158" y="222" width="59" height="59">
<path d="M158.048 222.569L215.943 222.415L216.097 280.311L158.201 280.464L158.048 222.569Z" fill="white"/>
</mask>
<g mask="url(#mask6_0_1)">
<mask id="mask7_0_1" style="mask-type:luminance" maskUnits="userSpaceOnUse" x="158" y="222" width="59" height="59">
<path d="M186.995 222.492C171.006 222.534 158.082 235.527 158.124 251.517C158.167 267.506 171.159 280.43 187.149 280.388C203.133 280.345 216.062 267.353 216.02 251.363C215.978 235.374 202.98 222.45 186.995 222.492Z" fill="white"/>
</mask>
<g mask="url(#mask7_0_1)">
<path d="M158.048 222.569L215.943 222.415L216.097 280.311L158.201 280.464L158.048 222.569Z" fill="#6E26A7"/>
</g>
</g>
<mask id="mask8_0_1" style="mask-type:luminance" maskUnits="userSpaceOnUse" x="222" y="286" width="59" height="59">
<path d="M222.415 286.596L280.311 286.443L280.464 344.339L222.569 344.492L222.415 286.596Z" fill="white"/>
</mask>
<g mask="url(#mask8_0_1)">
<mask id="mask9_0_1" style="mask-type:luminance" maskUnits="userSpaceOnUse" x="222" y="286" width="59" height="59">
<path d="M251.363 286.52C235.374 286.562 222.45 299.56 222.492 315.544C222.534 331.534 235.527 344.458 251.517 344.415C267.506 344.373 280.43 331.38 280.388 315.391C280.345 299.406 267.353 286.477 251.363 286.52Z" fill="white"/>
</mask>
<g mask="url(#mask9_0_1)">
<path d="M222.415 286.596L280.311 286.443L280.464 344.339L222.569 344.492L222.415 286.596Z" fill="#6E26A7"/>
</g>
</g>
<defs>
<linearGradient id="paint0_linear_0_1" x1="121.191" y1="111.582" x2="382.756" y2="387.922" gradientUnits="userSpaceOnUse">
<stop stop-color="white"/>
<stop offset="0.25" stop-color="white"/>
<stop offset="0.3125" stop-color="white"/>
<stop offset="0.34375" stop-color="white"/>
<stop offset="0.359375" stop-color="white"/>
<stop offset="0.367188" stop-color="white"/>
<stop offset="0.371094" stop-color="#FDFDFD"/>
<stop offset="0.375" stop-color="#FCFCFC"/>
<stop offset="0.378906" stop-color="#FBFBFB"/>
<stop offset="0.382812" stop-color="#FAFAFA"/>
<stop offset="0.386719" stop-color="#F8F8F8"/>
<stop offset="0.390625" stop-color="#F7F7F7"/>
<stop offset="0.394531" stop-color="#F6F6F6"/>
<stop offset="0.398438" stop-color="#F4F4F4"/>
<stop offset="0.402344" stop-color="#F3F3F3"/>
<stop offset="0.40625" stop-color="#F2F2F2"/>
<stop offset="0.410156" stop-color="#F0F0F0"/>
<stop offset="0.414062" stop-color="#EFEFEF"/>
<stop offset="0.417969" stop-color="#EEEEEE"/>
<stop offset="0.421875" stop-color="#EDEDED"/>
<stop offset="0.425781" stop-color="#EBEBEB"/>
<stop offset="0.429688" stop-color="#EAEAEA"/>
<stop offset="0.433594" stop-color="#E9E9E9"/>
<stop offset="0.4375" stop-color="#E7E7E7"/>
<stop offset="0.441406" stop-color="#E6E6E6"/>
<stop offset="0.445312" stop-color="#E5E5E5"/>
<stop offset="0.449219" stop-color="#E4E4E4"/>
<stop offset="0.453125" stop-color="#E2E2E2"/>
<stop offset="0.457031" stop-color="#E1E1E1"/>
<stop offset="0.460938" stop-color="#E0E0E0"/>
<stop offset="0.464844" stop-color="#DEDEDE"/>
<stop offset="0.46875" stop-color="#DDDDDD"/>
<stop offset="0.472656" stop-color="#DCDCDC"/>
<stop offset="0.476562" stop-color="#DADADA"/>
<stop offset="0.480469" stop-color="#D9D9D9"/>
<stop offset="0.484375" stop-color="#D8D8D8"/>
<stop offset="0.488281" stop-color="#D7D7D7"/>
<stop offset="0.492188" stop-color="#D5D5D5"/>
<stop offset="0.496094" stop-color="#D4D4D4"/>
<stop offset="0.5" stop-color="#D3D3D3"/>
<stop offset="0.503906" stop-color="#D1D1D1"/>
<stop offset="0.507812" stop-color="#D0D0D0"/>
<stop offset="0.511719" stop-color="#CFCFCF"/>
<stop offset="0.515625" stop-color="#CDCDCD"/>
<stop offset="0.519531" stop-color="#CCCCCC"/>
<stop offset="0.523438" stop-color="#CBCBCB"/>
<stop offset="0.527344" stop-color="#CACACA"/>
<stop offset="0.53125" stop-color="#C8C8C8"/>
<stop offset="0.535156" stop-color="#C7C7C7"/>
<stop offset="0.539062" stop-color="#C6C6C6"/>
<stop offset="0.542969" stop-color="#C4C4C4"/>
<stop offset="0.546875" stop-color="#C3C3C3"/>
<stop offset="0.550781" stop-color="#C2C2C2"/>
<stop offset="0.554688" stop-color="#C0C0C0"/>
<stop offset="0.558594" stop-color="#BFBFBF"/>
<stop offset="0.5625" stop-color="#BEBEBE"/>
<stop offset="0.566406" stop-color="#BDBDBD"/>
<stop offset="0.570312" stop-color="#BBBBBB"/>
<stop offset="0.574219" stop-color="#BABABA"/>
<stop offset="0.578125" stop-color="#B9B9B9"/>
<stop offset="0.582031" stop-color="#B7B7B7"/>
<stop offset="0.585938" stop-color="#B6B6B6"/>
<stop offset="0.589844" stop-color="#B5B5B5"/>
<stop offset="0.59375" stop-color="#B4B4B4"/>
<stop offset="0.597656" stop-color="#B2B2B2"/>
<stop offset="0.601562" stop-color="#B1B1B1"/>
<stop offset="0.605469" stop-color="#B0B0B0"/>
<stop offset="0.609375" stop-color="#AEAEAE"/>
<stop offset="0.613281" stop-color="#ADADAD"/>
<stop offset="0.617188" stop-color="#ACACAC"/>
<stop offset="0.621094" stop-color="#AAAAAA"/>
<stop offset="0.625" stop-color="#A9A9A9"/>
<stop offset="0.628906" stop-color="#A8A8A8"/>
<stop offset="0.632812" stop-color="#A7A7A7"/>
<stop offset="0.636719" stop-color="#A5A5A5"/>
<stop offset="0.640625" stop-color="#A4A4A4"/>
<stop offset="0.644531" stop-color="#A3A3A3"/>
<stop offset="0.648438" stop-color="#A1A1A1"/>
<stop offset="0.652344" stop-color="#A0A0A0"/>
<stop offset="0.65625" stop-color="#9F9F9F"/>
<stop offset="0.660156" stop-color="#9D9D9D"/>
<stop offset="0.664062" stop-color="#9C9C9C"/>
<stop offset="0.667969" stop-color="#9B9B9B"/>
<stop offset="0.671875" stop-color="#9A9A9A"/>
<stop offset="0.675781" stop-color="#989898"/>
<stop offset="0.679688" stop-color="#979797"/>
<stop offset="0.683594" stop-color="#969696"/>
<stop offset="0.6875" stop-color="#949494"/>
<stop offset="0.691406" stop-color="#939393"/>
<stop offset="0.695312" stop-color="#929292"/>
<stop offset="0.699219" stop-color="#919191"/>
<stop offset="0.703125" stop-color="#8F8F8F"/>
<stop offset="0.707031" stop-color="#8E8E8E"/>
<stop offset="0.710938" stop-color="#8D8D8D"/>
<stop offset="0.714844" stop-color="#8B8B8B"/>
<stop offset="0.71875" stop-color="#8A8A8A"/>
<stop offset="0.722656" stop-color="#898989"/>
<stop offset="0.726562" stop-color="#878787"/>
<stop offset="0.730469" stop-color="#868686"/>
<stop offset="0.734375" stop-color="#858585"/>
<stop offset="0.738281" stop-color="#848484"/>
<stop offset="0.742188" stop-color="#828282"/>
<stop offset="0.746094" stop-color="#818181"/>
<stop offset="0.75" stop-color="#808080"/>
<stop offset="0.753906" stop-color="#7E7E7E"/>
<stop offset="0.757812" stop-color="#7D7D7D"/>
<stop offset="0.761719" stop-color="#7C7C7C"/>
<stop offset="0.765625" stop-color="#7A7A7A"/>
<stop offset="0.769531" stop-color="#797979"/>
<stop offset="0.773438" stop-color="#787878"/>
<stop offset="0.777344" stop-color="#777777"/>
<stop offset="0.78125" stop-color="#757575"/>
<stop offset="0.785156" stop-color="#747474"/>
<stop offset="0.789062" stop-color="#737373"/>
<stop offset="0.792969" stop-color="#717171"/>
<stop offset="0.796875" stop-color="#707070"/>
<stop offset="0.800781" stop-color="#6F6F6F"/>
<stop offset="0.804688" stop-color="#6D6D6D"/>
<stop offset="0.808594" stop-color="#6C6C6C"/>
<stop offset="0.8125" stop-color="#6B6B6B"/>
<stop offset="0.816406" stop-color="#6A6A6A"/>
<stop offset="0.820312" stop-color="#686868"/>
<stop offset="0.824219" stop-color="#676767"/>
<stop offset="0.828125" stop-color="#666666"/>
<stop offset="0.832031" stop-color="#646464"/>
<stop offset="0.835938" stop-color="#636363"/>
<stop offset="0.839844" stop-color="#626262"/>
<stop offset="0.84375" stop-color="#616161"/>
<stop offset="0.847656" stop-color="#5F5F5F"/>
<stop offset="0.851562" stop-color="#5E5E5E"/>
<stop offset="0.855469" stop-color="#5D5D5D"/>
<stop offset="0.859375" stop-color="#5B5B5B"/>
<stop offset="0.863281" stop-color="#5A5A5A"/>
<stop offset="0.867188" stop-color="#595959"/>
<stop offset="0.871094" stop-color="#575757"/>
<stop offset="0.875" stop-color="#565656"/>
<stop offset="0.878906" stop-color="#6E456E"/>
<stop offset="0.882812" stop-color="#863586"/>
<stop offset="0.886719" stop-color="#9D269D"/>
<stop offset="0.890625" stop-color="#B418B4"/>
<stop offset="0.90625" stop-color="#B418B4"/>
<stop offset="0.9375" stop-color="#B418B4"/>
<stop offset="1" stop-color="#B418B4"/>
</linearGradient>
</defs>
</svg>
