<svg width="679" height="555" viewBox="0 0 679 555" fill="none" xmlns="http://www.w3.org/2000/svg">
<rect width="679" height="555" />
<path d="M515.226 164.754C559.899 173.756 598.017 204.24 627.941 241.308C657.864 278.029 679.182 321.682 677.959 364.298C676.737 407.262 652.973 449.535 617.732 478.645C582.492 507.408 535.774 523.353 492.332 524.053C449.3 524.753 409.545 510.207 371.84 506.748C334.545 503.636 299.301 511.61 264.465 506.765C229.628 502.266 194.79 484.602 149.705 458.97C104.21 433.338 48.4679 399.045 38.6259 360.242C28.7839 321.438 65.6616 278.123 115.658 259.059C165.654 240.341 228.768 245.875 273.438 237.206C318.108 228.537 343.924 205.319 382.035 187.296C420.146 169.274 470.963 156.1 515.226 164.754Z" fill="#6E26A7"/>
<mask id="mask0_0_1" style="mask-type:luminance" maskUnits="userSpaceOnUse" x="135" y="123" width="285" height="308">
<path d="M167.426 123L419.934 152.44L387.508 430.557L135 401.116L167.426 123Z" fill="white"/>
</mask>
<g mask="url(#mask0_0_1)">
<mask id="mask1_0_1" style="mask-type:luminance" maskUnits="userSpaceOnUse" x="145" y="137" width="265" height="279">
<path d="M156.307 218.37L146.228 304.815C144.066 323.362 151.922 341.655 166.837 352.79L236.355 404.701C251.27 415.842 270.98 418.14 288.062 410.729L367.654 376.204C384.73 368.798 396.584 352.803 398.747 334.257L408.825 247.811C410.988 229.265 403.132 210.972 388.217 199.836L318.703 147.926C303.784 136.785 284.073 134.487 266.996 141.898L187.4 176.423C170.322 183.838 158.469 199.823 156.307 218.37Z" fill="white"/>
</mask>
<g mask="url(#mask1_0_1)">
<path d="M134.865 402.27L167.669 120.915L420.177 150.356L387.374 431.71L134.865 402.27Z" fill="url(#paint0_linear_0_1)"/>
</g>
</g>
<mask id="mask2_0_1" style="mask-type:luminance" maskUnits="userSpaceOnUse" x="308" y="252" width="66" height="65">
<path d="M315.635 252.599L373.141 259.304L366.437 316.81L308.93 310.105L315.635 252.599Z" fill="white"/>
</mask>
<g mask="url(#mask2_0_1)">
<mask id="mask3_0_1" style="mask-type:luminance" maskUnits="userSpaceOnUse" x="312" y="255" width="58" height="59">
<path d="M344.388 255.951C328.511 254.1 314.134 265.47 312.283 281.352C310.431 297.234 321.807 311.606 337.683 313.458C353.565 315.309 367.937 303.939 369.789 288.057C371.641 272.175 360.27 257.803 344.388 255.951Z" fill="white"/>
</mask>
<g mask="url(#mask3_0_1)">
<path d="M315.635 252.599L373.141 259.304L366.437 316.81L308.93 310.105L315.635 252.599Z" fill="#6E26A7"/>
</g>
</g>
<mask id="mask4_0_1" style="mask-type:luminance" maskUnits="userSpaceOnUse" x="245" y="174" width="79" height="79">
<path d="M245.923 200.389L297.819 174.723L323.486 226.618L271.59 252.285L245.923 200.389Z" fill="white"/>
</mask>
<g mask="url(#mask4_0_1)">
<mask id="mask5_0_1" style="mask-type:luminance" maskUnits="userSpaceOnUse" x="255" y="184" width="59" height="59">
<path d="M271.871 187.556C257.539 194.645 251.668 212.005 258.757 226.337C265.843 240.665 283.205 246.54 297.538 239.452C311.87 232.363 317.738 214.998 310.652 200.67C303.564 186.338 286.203 180.467 271.871 187.556Z" fill="white"/>
</mask>
<g mask="url(#mask5_0_1)">
<path d="M245.923 200.389L297.819 174.723L323.486 226.618L271.59 252.285L245.923 200.389Z" fill="#6E26A7"/>
</g>
</g>
<mask id="mask6_0_1" style="mask-type:luminance" maskUnits="userSpaceOnUse" x="181" y="237" width="65" height="65">
<path d="M188.103 237.73L245.609 244.434L238.905 301.941L181.398 295.236L188.103 237.73Z" fill="white"/>
</mask>
<g mask="url(#mask6_0_1)">
<mask id="mask7_0_1" style="mask-type:luminance" maskUnits="userSpaceOnUse" x="184" y="240" width="59" height="59">
<path d="M216.856 241.082C200.974 239.23 186.602 250.601 184.751 266.483C182.899 282.365 194.269 296.737 210.151 298.588C226.028 300.439 240.405 289.07 242.257 273.188C244.109 257.306 232.733 242.933 216.856 241.082Z" fill="white"/>
</mask>
<g mask="url(#mask7_0_1)">
<path d="M188.103 237.73L245.609 244.434L238.905 301.941L181.398 295.236L188.103 237.73Z" fill="#6E26A7"/>
</g>
</g>
<mask id="mask8_0_1" style="mask-type:luminance" maskUnits="userSpaceOnUse" x="237" y="308" width="65" height="66">
<path d="M244.434 308.93L301.941 315.635L295.236 373.141L237.73 366.437L244.434 308.93Z" fill="white"/>
</mask>
<g mask="url(#mask8_0_1)">
<mask id="mask9_0_1" style="mask-type:luminance" maskUnits="userSpaceOnUse" x="240" y="312" width="59" height="58">
<path d="M273.188 312.283C257.306 310.431 242.933 321.807 241.082 337.683C239.23 353.565 250.601 367.937 266.483 369.789C282.365 371.641 296.737 360.27 298.588 344.388C300.439 328.511 289.07 314.134 273.188 312.283Z" fill="white"/>
</mask>
<g mask="url(#mask9_0_1)">
<path d="M244.434 308.93L301.941 315.635L295.236 373.141L237.73 366.437L244.434 308.93Z" fill="#6E26A7"/>
</g>
</g>
<defs>
<linearGradient id="paint0_linear_0_1" x1="164.651" y1="123.158" x2="391.645" y2="428.533" gradientUnits="userSpaceOnUse">
<stop stop-color="white"/>
<stop offset="0.25" stop-color="white"/>
<stop offset="0.3125" stop-color="white"/>
<stop offset="0.34375" stop-color="white"/>
<stop offset="0.359375" stop-color="white"/>
<stop offset="0.367188" stop-color="white"/>
<stop offset="0.371094" stop-color="#FDFDFD"/>
<stop offset="0.375" stop-color="#FCFCFC"/>
<stop offset="0.378906" stop-color="#FBFBFB"/>
<stop offset="0.382812" stop-color="#FAFAFA"/>
<stop offset="0.386719" stop-color="#F8F8F8"/>
<stop offset="0.390625" stop-color="#F7F7F7"/>
<stop offset="0.394531" stop-color="#F6F6F6"/>
<stop offset="0.398438" stop-color="#F4F4F4"/>
<stop offset="0.402344" stop-color="#F3F3F3"/>
<stop offset="0.40625" stop-color="#F2F2F2"/>
<stop offset="0.410156" stop-color="#F0F0F0"/>
<stop offset="0.414062" stop-color="#EFEFEF"/>
<stop offset="0.417969" stop-color="#EEEEEE"/>
<stop offset="0.421875" stop-color="#EDEDED"/>
<stop offset="0.425781" stop-color="#EBEBEB"/>
<stop offset="0.429688" stop-color="#EAEAEA"/>
<stop offset="0.433594" stop-color="#E9E9E9"/>
<stop offset="0.4375" stop-color="#E7E7E7"/>
<stop offset="0.441406" stop-color="#E6E6E6"/>
<stop offset="0.445312" stop-color="#E5E5E5"/>
<stop offset="0.449219" stop-color="#E4E4E4"/>
<stop offset="0.453125" stop-color="#E2E2E2"/>
<stop offset="0.457031" stop-color="#E1E1E1"/>
<stop offset="0.460938" stop-color="#E0E0E0"/>
<stop offset="0.464844" stop-color="#DEDEDE"/>
<stop offset="0.46875" stop-color="#DDDDDD"/>
<stop offset="0.472656" stop-color="#DCDCDC"/>
<stop offset="0.476562" stop-color="#DADADA"/>
<stop offset="0.480469" stop-color="#D9D9D9"/>
<stop offset="0.484375" stop-color="#D8D8D8"/>
<stop offset="0.488281" stop-color="#D7D7D7"/>
<stop offset="0.492188" stop-color="#D5D5D5"/>
<stop offset="0.496094" stop-color="#D4D4D4"/>
<stop offset="0.5" stop-color="#D3D3D3"/>
<stop offset="0.503906" stop-color="#D1D1D1"/>
<stop offset="0.507812" stop-color="#D0D0D0"/>
<stop offset="0.511719" stop-color="#CFCFCF"/>
<stop offset="0.515625" stop-color="#CDCDCD"/>
<stop offset="0.519531" stop-color="#CCCCCC"/>
<stop offset="0.523438" stop-color="#CBCBCB"/>
<stop offset="0.527344" stop-color="#CACACA"/>
<stop offset="0.53125" stop-color="#C8C8C8"/>
<stop offset="0.535156" stop-color="#C7C7C7"/>
<stop offset="0.539062" stop-color="#C6C6C6"/>
<stop offset="0.542969" stop-color="#C4C4C4"/>
<stop offset="0.546875" stop-color="#C3C3C3"/>
<stop offset="0.550781" stop-color="#C2C2C2"/>
<stop offset="0.554688" stop-color="#C0C0C0"/>
<stop offset="0.558594" stop-color="#BFBFBF"/>
<stop offset="0.5625" stop-color="#BEBEBE"/>
<stop offset="0.566406" stop-color="#BDBDBD"/>
<stop offset="0.570312" stop-color="#BBBBBB"/>
<stop offset="0.574219" stop-color="#BABABA"/>
<stop offset="0.578125" stop-color="#B9B9B9"/>
<stop offset="0.582031" stop-color="#B7B7B7"/>
<stop offset="0.585938" stop-color="#B6B6B6"/>
<stop offset="0.589844" stop-color="#B5B5B5"/>
<stop offset="0.59375" stop-color="#B4B4B4"/>
<stop offset="0.597656" stop-color="#B2B2B2"/>
<stop offset="0.601562" stop-color="#B1B1B1"/>
<stop offset="0.605469" stop-color="#B0B0B0"/>
<stop offset="0.609375" stop-color="#AEAEAE"/>
<stop offset="0.613281" stop-color="#ADADAD"/>
<stop offset="0.617188" stop-color="#ACACAC"/>
<stop offset="0.621094" stop-color="#AAAAAA"/>
<stop offset="0.625" stop-color="#A9A9A9"/>
<stop offset="0.628906" stop-color="#A8A8A8"/>
<stop offset="0.632812" stop-color="#A7A7A7"/>
<stop offset="0.636719" stop-color="#A5A5A5"/>
<stop offset="0.640625" stop-color="#A4A4A4"/>
<stop offset="0.644531" stop-color="#A3A3A3"/>
<stop offset="0.648438" stop-color="#A1A1A1"/>
<stop offset="0.652344" stop-color="#A0A0A0"/>
<stop offset="0.65625" stop-color="#9F9F9F"/>
<stop offset="0.660156" stop-color="#9D9D9D"/>
<stop offset="0.664062" stop-color="#9C9C9C"/>
<stop offset="0.667969" stop-color="#9B9B9B"/>
<stop offset="0.671875" stop-color="#9A9A9A"/>
<stop offset="0.675781" stop-color="#989898"/>
<stop offset="0.679688" stop-color="#979797"/>
<stop offset="0.683594" stop-color="#969696"/>
<stop offset="0.6875" stop-color="#949494"/>
<stop offset="0.691406" stop-color="#939393"/>
<stop offset="0.695312" stop-color="#929292"/>
<stop offset="0.699219" stop-color="#919191"/>
<stop offset="0.703125" stop-color="#8F8F8F"/>
<stop offset="0.707031" stop-color="#8E8E8E"/>
<stop offset="0.710938" stop-color="#8D8D8D"/>
<stop offset="0.714844" stop-color="#8B8B8B"/>
<stop offset="0.71875" stop-color="#8A8A8A"/>
<stop offset="0.722656" stop-color="#898989"/>
<stop offset="0.726562" stop-color="#878787"/>
<stop offset="0.730469" stop-color="#868686"/>
<stop offset="0.734375" stop-color="#858585"/>
<stop offset="0.738281" stop-color="#848484"/>
<stop offset="0.742188" stop-color="#828282"/>
<stop offset="0.746094" stop-color="#818181"/>
<stop offset="0.75" stop-color="#808080"/>
<stop offset="0.753906" stop-color="#7E7E7E"/>
<stop offset="0.757812" stop-color="#7D7D7D"/>
<stop offset="0.761719" stop-color="#7C7C7C"/>
<stop offset="0.765625" stop-color="#7A7A7A"/>
<stop offset="0.769531" stop-color="#797979"/>
<stop offset="0.773438" stop-color="#787878"/>
<stop offset="0.777344" stop-color="#777777"/>
<stop offset="0.78125" stop-color="#757575"/>
<stop offset="0.785156" stop-color="#747474"/>
<stop offset="0.789062" stop-color="#737373"/>
<stop offset="0.792969" stop-color="#717171"/>
<stop offset="0.796875" stop-color="#707070"/>
<stop offset="0.800781" stop-color="#6F6F6F"/>
<stop offset="0.804688" stop-color="#6D6D6D"/>
<stop offset="0.808594" stop-color="#6C6C6C"/>
<stop offset="0.8125" stop-color="#6B6B6B"/>
<stop offset="0.816406" stop-color="#6A6A6A"/>
<stop offset="0.820312" stop-color="#686868"/>
<stop offset="0.824219" stop-color="#676767"/>
<stop offset="0.828125" stop-color="#666666"/>
<stop offset="0.832031" stop-color="#646464"/>
<stop offset="0.835938" stop-color="#636363"/>
<stop offset="0.839844" stop-color="#626262"/>
<stop offset="0.84375" stop-color="#616161"/>
<stop offset="0.847656" stop-color="#5F5F5F"/>
<stop offset="0.851562" stop-color="#5E5E5E"/>
<stop offset="0.855469" stop-color="#5D5D5D"/>
<stop offset="0.859375" stop-color="#5B5B5B"/>
<stop offset="0.863281" stop-color="#5A5A5A"/>
<stop offset="0.867188" stop-color="#595959"/>
<stop offset="0.871094" stop-color="#575757"/>
<stop offset="0.875" stop-color="#565656"/>
<stop offset="0.878906" stop-color="#6E456E"/>
<stop offset="0.882812" stop-color="#863586"/>
<stop offset="0.886719" stop-color="#9D269D"/>
<stop offset="0.890625" stop-color="#B418B4"/>
<stop offset="0.90625" stop-color="#B418B4"/>
<stop offset="0.9375" stop-color="#B418B4"/>
<stop offset="1" stop-color="#B418B4"/>
</linearGradient>
</defs>
</svg>
